<svg width="33" height="32" viewBox="0 0 33 32" fill="none" xmlns="http://www.w3.org/2000/svg">
<rect x="0.0996094" width="32" height="32" rx="4" fill="#FFF8E3"/>
<path d="M13.0996 21V22C13.0996 22.7956 13.4157 23.5587 13.9783 24.1213C14.5409 24.6839 15.304 25 16.0996 25C16.8953 25 17.6583 24.6839 18.2209 24.1213C18.7835 23.5587 19.0996 22.7956 19.0996 22V21M14.0996 9C14.0996 8.46957 14.3103 7.96086 14.6854 7.58579C15.0605 7.21071 15.5692 7 16.0996 7C16.63 7 17.1387 7.21071 17.5138 7.58579C17.8889 7.96086 18.0996 8.46957 18.0996 9C19.248 9.54303 20.227 10.3883 20.9317 11.4453C21.6363 12.5023 22.04 13.7311 22.0996 15V18C22.1749 18.6217 22.395 19.2171 22.7424 19.7381C23.0898 20.2592 23.5547 20.6914 24.0996 21H8.09961C8.64455 20.6914 9.10942 20.2592 9.4568 19.7381C9.80417 19.2171 10.0244 18.6217 10.0996 18V15C10.1592 13.7311 10.5629 12.5023 11.2676 11.4453C11.9722 10.3883 12.9512 9.54303 14.0996 9Z" stroke="#FFBF35" stroke-width="2" stroke-linecap="round" stroke-linejoin="round"/>
</svg>
