<svg width="16" height="16" viewBox="0 0 16 16" fill="none" xmlns="http://www.w3.org/2000/svg">
<path d="M10.9992 9.66667H10.3409L10.1075 9.44167C10.9524 8.46169 11.4168 7.21058 11.4159 5.91667C11.4159 4.84535 11.0982 3.7981 10.503 2.90733C9.90779 2.01656 9.06182 1.3223 8.07206 0.912322C7.08229 0.502347 5.99318 0.395079 4.94245 0.604082C3.89172 0.813085 2.92656 1.32897 2.16903 2.08651C1.41149 2.84404 0.895605 3.8092 0.686602 4.85993C0.477598 5.91066 0.584866 6.99977 0.994841 7.98954C1.40482 8.9793 2.09908 9.82527 2.98985 10.4205C3.88062 11.0157 4.92787 11.3333 5.99919 11.3333C7.34086 11.3333 8.57419 10.8417 9.52419 10.025L9.74919 10.2583V10.9167L13.9159 15.075L15.1575 13.8333L10.9992 9.66667ZM5.99919 9.66667C3.92419 9.66667 2.24919 7.99167 2.24919 5.91667C2.24919 3.84167 3.92419 2.16667 5.99919 2.16667C8.07419 2.16667 9.74919 3.84167 9.74919 5.91667C9.74919 7.99167 8.07419 9.66667 5.99919 9.66667Z" fill="#687685"/>
</svg>
