<svg width="29" height="28" viewBox="0 0 29 28" fill="none" xmlns="http://www.w3.org/2000/svg">
<rect x="0.0996094" width="28" height="28" rx="4" fill="#0068BC"/>
<g clip-path="url(#clip0_92_37)">
<path fill-rule="evenodd" clip-rule="evenodd" d="M17.4329 16.5C18.5213 16.5 19.4479 17.1958 19.7913 18.1667H20.7663C20.9873 18.1667 21.1993 18.2545 21.3555 18.4107C21.5118 18.567 21.5996 18.779 21.5996 19C21.5996 19.221 21.5118 19.433 21.3555 19.5893C21.1993 19.7455 20.9873 19.8333 20.7663 19.8333H19.7913C19.6191 20.3213 19.2998 20.7438 18.8774 21.0427C18.4551 21.3415 17.9504 21.502 17.4329 21.502C16.9155 21.502 16.4108 21.3415 15.9884 21.0427C15.5661 20.7438 15.2468 20.3213 15.0746 19.8333H7.43294C7.21193 19.8333 6.99997 19.7455 6.84369 19.5893C6.68741 19.433 6.59961 19.221 6.59961 19C6.59961 18.779 6.68741 18.567 6.84369 18.4107C6.99997 18.2545 7.21193 18.1667 7.43294 18.1667H15.0746C15.2471 17.6791 15.5665 17.257 15.9889 16.9585C16.4113 16.66 16.9158 16.4999 17.4329 16.5ZM17.4329 18.1667C17.2119 18.1667 17 18.2545 16.8437 18.4107C16.6874 18.567 16.5996 18.779 16.5996 19C16.5996 19.221 16.6874 19.433 16.8437 19.5893C17 19.7455 17.2119 19.8333 17.4329 19.8333C17.654 19.8333 17.8659 19.7455 18.0222 19.5893C18.1785 19.433 18.2663 19.221 18.2663 19C18.2663 18.779 18.1785 18.567 18.0222 18.4107C17.8659 18.2545 17.654 18.1667 17.4329 18.1667ZM10.7663 11.5C11.2571 11.4999 11.7371 11.6443 12.1464 11.9152C12.5557 12.1861 12.8762 12.5715 13.0679 13.0233L13.1238 13.1667H20.7663C20.9787 13.1669 21.183 13.2482 21.3374 13.394C21.4919 13.5398 21.5848 13.7391 21.5973 13.9512C21.6097 14.1632 21.5407 14.372 21.4044 14.5349C21.2681 14.6977 21.0747 14.8024 20.8638 14.8275L20.7663 14.8333H13.1246C12.9566 15.3086 12.6489 15.722 12.2419 16.0193C11.8349 16.3166 11.3475 16.484 10.8437 16.4995C10.3398 16.515 9.84309 16.3779 9.41855 16.1061C8.99401 15.8344 8.6615 15.4407 8.46461 14.9767L8.40794 14.8333H7.43294C7.22054 14.8331 7.01625 14.7518 6.8618 14.606C6.70736 14.4602 6.61441 14.2609 6.60197 14.0488C6.58952 13.8368 6.6585 13.628 6.79483 13.4651C6.93116 13.3023 7.12453 13.1976 7.33544 13.1725L7.43294 13.1667H8.40794C8.58045 12.6791 8.89988 12.257 9.32223 11.9585C9.74459 11.66 10.2491 11.4999 10.7663 11.5ZM10.7663 13.1667C10.5453 13.1667 10.3333 13.2545 10.177 13.4107C10.0207 13.567 9.93294 13.779 9.93294 14C9.93294 14.221 10.0207 14.433 10.177 14.5893C10.3333 14.7455 10.5453 14.8333 10.7663 14.8333C10.9873 14.8333 11.1993 14.7455 11.3555 14.5893C11.5118 14.433 11.5996 14.221 11.5996 14C11.5996 13.779 11.5118 13.567 11.3555 13.4107C11.1993 13.2545 10.9873 13.1667 10.7663 13.1667ZM17.4329 6.5C18.5213 6.5 19.4479 7.19583 19.7913 8.16667H20.7663C20.9873 8.16667 21.1993 8.25446 21.3555 8.41074C21.5118 8.56702 21.5996 8.77899 21.5996 9C21.5996 9.22101 21.5118 9.43298 21.3555 9.58926C21.1993 9.74554 20.9873 9.83333 20.7663 9.83333H19.7913C19.6191 10.3213 19.2998 10.7438 18.8774 11.0427C18.4551 11.3415 17.9504 11.502 17.4329 11.502C16.9155 11.502 16.4108 11.3415 15.9884 11.0427C15.5661 10.7438 15.2468 10.3213 15.0746 9.83333H7.43294C7.21193 9.83333 6.99997 9.74554 6.84369 9.58926C6.68741 9.43298 6.59961 9.22101 6.59961 9C6.59961 8.77899 6.68741 8.56702 6.84369 8.41074C6.99997 8.25446 7.21193 8.16667 7.43294 8.16667H15.0746C15.2471 7.6791 15.5665 7.25702 15.9889 6.95853C16.4113 6.66005 16.9158 6.49985 17.4329 6.5ZM17.4329 8.16667C17.2119 8.16667 17 8.25446 16.8437 8.41074C16.6874 8.56702 16.5996 8.77899 16.5996 9C16.5996 9.22101 16.6874 9.43298 16.8437 9.58926C17 9.74554 17.2119 9.83333 17.4329 9.83333C17.654 9.83333 17.8659 9.74554 18.0222 9.58926C18.1785 9.43298 18.2663 9.22101 18.2663 9C18.2663 8.77899 18.1785 8.56702 18.0222 8.41074C17.8659 8.25446 17.654 8.16667 17.4329 8.16667Z" fill="white"/>
</g>
<defs>
<clipPath id="clip0_92_37">
<rect width="20" height="20" fill="white" transform="translate(4.09961 4)"/>
</clipPath>
</defs>
</svg>
