<svg width="14" height="14" viewBox="0 0 14 14" fill="none" xmlns="http://www.w3.org/2000/svg">
<path d="M7.354 0.145917C7.30756 0.099354 7.25238 0.0624111 7.19163 0.0372047C7.13089 0.0119982 7.06577 -0.000976563 7 -0.000976562C6.93423 -0.000976563 6.86911 0.0119982 6.80837 0.0372047C6.74762 0.0624111 6.69245 0.099354 6.646 0.145917L0.646001 6.14592C0.599599 6.19244 0.562821 6.24764 0.537769 6.30839C0.512717 6.36913 0.499883 6.43421 0.500001 6.49992V13.4999C0.500001 13.6325 0.552679 13.7597 0.646447 13.8535C0.740216 13.9472 0.867393 13.9999 1 13.9999H5.5C5.63261 13.9999 5.75979 13.9472 5.85355 13.8535C5.94732 13.7597 6 13.6325 6 13.4999V9.49992H8V13.4999C8 13.6325 8.05268 13.7597 8.14645 13.8535C8.24022 13.9472 8.36739 13.9999 8.5 13.9999H13C13.1326 13.9999 13.2598 13.9472 13.3536 13.8535C13.4473 13.7597 13.5 13.6325 13.5 13.4999V6.49992C13.5001 6.43421 13.4873 6.36913 13.4622 6.30839C13.4372 6.24764 13.4004 6.19244 13.354 6.14592L12 4.79292V1.49992C12 1.36731 11.9473 1.24013 11.8536 1.14636C11.7598 1.0526 11.6326 0.999917 11.5 0.999917H10.5C10.3674 0.999917 10.2402 1.0526 10.1464 1.14636C10.0527 1.24013 10 1.36731 10 1.49992V2.79292L7.354 0.145917ZM1.5 12.9999V6.70692L7 1.20692L12.5 6.70692V12.9999H9V8.99992C9 8.86731 8.94732 8.74013 8.85355 8.64636C8.75979 8.5526 8.63261 8.49992 8.5 8.49992H5.5C5.36739 8.49992 5.24022 8.5526 5.14645 8.64636C5.05268 8.74013 5 8.86731 5 8.99992V12.9999H1.5Z" fill="white"/>
</svg>
