<svg width="48" height="49" viewBox="0 0 48 49" fill="none" xmlns="http://www.w3.org/2000/svg">
<path d="M39.696 7.2499C37.8927 5.17657 35.6653 3.51443 33.1645 2.37583C30.6637 1.23721 27.9477 0.64865 25.2 0.649904C24.3532 0.6521 23.5075 0.708214 22.668 0.817904C19.4056 1.23616 16.3053 2.48548 13.6645 4.44608C11.0237 6.40667 8.93077 9.01282 7.58647 12.0146C6.24217 15.0164 5.69154 18.3133 5.98737 21.589C6.2832 24.8647 7.41558 28.0094 9.27594 30.7219L3.51594 38.1259C2.84991 38.9789 2.43714 40.0022 2.32477 41.0786C2.21241 42.155 2.40496 43.2415 2.88046 44.2138C3.35595 45.1859 4.09524 46.005 5.01391 46.5772C5.93257 47.1494 6.99363 47.4518 8.07594 47.4499C8.95015 47.4511 9.81309 47.2528 10.5991 46.8701C11.3851 46.4875 12.0735 45.9307 12.6119 45.2419L18.36 37.9219C21.4956 39.111 24.8859 39.4664 28.2 38.9539C31.6123 38.4353 34.8217 37.0066 37.4907 34.8179C40.1595 32.6293 42.189 29.7616 43.3656 26.5168C44.5422 23.272 44.8224 19.7699 44.1765 16.3793C43.5307 12.9888 41.9829 9.83503 39.696 7.2499ZM41.352 22.1059C40.8889 25.5841 39.3157 28.82 36.8661 31.3324C34.4164 33.8446 31.2213 35.4992 27.756 36.0499C26.9181 36.1782 26.0716 36.2423 25.224 36.2419C22.8606 36.2467 20.5251 35.7304 18.384 34.7299C18.2031 34.6465 18.007 34.6017 17.808 34.5979C17.6164 34.5977 17.4274 34.6409 17.2551 34.724C17.0826 34.8071 16.9311 34.928 16.812 35.0779L10.2599 43.4779C9.99094 43.792 9.65536 44.042 9.27757 44.2102C8.8998 44.3783 8.48931 44.4602 8.07594 44.4499C7.55698 44.4494 7.04859 44.3033 6.60858 44.0282C6.16858 43.753 5.81466 43.3598 5.58709 42.8935C5.35951 42.4271 5.26744 41.9062 5.32134 41.39C5.37523 40.8739 5.57293 40.3832 5.89194 39.9739L12.4559 31.5739C12.6311 31.3471 12.7261 31.0685 12.7261 30.7819C12.7261 30.4952 12.6311 30.2167 12.4559 29.9899C10.8027 27.8782 9.69739 25.3903 9.2386 22.7479C8.77981 20.1055 8.98174 17.3908 9.82641 14.8453C10.6711 12.2999 12.1322 10.0029 14.0797 8.15902C16.0272 6.31513 18.4006 4.98158 20.9883 4.2772C23.5761 3.57281 26.2978 3.51946 28.9113 4.12187C31.5246 4.72429 33.9484 5.96378 35.9667 7.72993C37.9849 9.49607 39.535 11.734 40.4788 14.2444C41.4226 16.7548 41.7307 19.4596 41.376 22.1179L41.352 22.1059Z" fill="#1D1C1D"/>
<path d="M25.1998 8.8219C22.4133 8.8273 19.7302 9.87836 17.6814 11.7672C15.6327 13.656 14.3674 16.2449 14.1359 19.0219H12.3359C12.2352 19.0204 12.1363 19.0492 12.0521 19.1044C11.9678 19.1597 11.9021 19.2389 11.8633 19.3319C11.8246 19.4249 11.8146 19.5275 11.8347 19.6263C11.8547 19.7249 11.9039 19.8154 11.9759 19.8859L15.1678 23.0899C15.2643 23.1838 15.3934 23.2363 15.5278 23.2363C15.6624 23.2363 15.7915 23.1838 15.8878 23.0899L19.0918 19.8859C19.1638 19.8154 19.213 19.7249 19.2331 19.6263C19.2532 19.5275 19.2432 19.4249 19.2045 19.3319C19.1656 19.2389 19.0999 19.1597 19.0158 19.1044C18.9315 19.0492 18.8326 19.0204 18.7318 19.0219H17.0878C17.3056 17.1356 18.1798 15.3862 19.5577 14.0799C20.9356 12.7735 22.729 11.9935 24.6241 11.8765C26.5192 11.7595 28.3951 12.313 29.9232 13.4399C31.4512 14.5669 32.5341 16.1956 32.9821 18.0406C33.4302 19.8857 33.2148 21.8296 32.3737 23.5318C31.5327 25.2341 30.1196 26.5862 28.382 27.3514C26.6442 28.1165 24.6927 28.2458 22.8692 27.7169C21.0456 27.1879 19.4664 26.0342 18.4078 24.4579C18.186 24.1294 17.8431 23.902 17.4541 23.8255C17.065 23.7491 16.6617 23.8297 16.3318 24.0499C16.0026 24.274 15.7749 24.619 15.6985 25.01C15.6222 25.4009 15.7032 25.8062 15.9238 26.1379C16.9935 27.7273 18.4558 29.0131 20.169 29.8705C21.8821 30.7281 23.7879 31.1279 25.7013 31.0316C27.6145 30.9353 29.4705 30.346 31.0889 29.3209C32.7072 28.2958 34.033 26.8696 34.9377 25.1809C35.8423 23.4922 36.295 21.5983 36.2519 19.683C36.2087 17.7677 35.6709 15.8962 34.6909 14.25C33.7111 12.6038 32.3223 11.2389 30.6593 10.2878C28.9963 9.33676 27.1156 8.83177 25.1998 8.8219Z" fill="#1D1C1D"/>
</svg>
