<svg width="20" height="20" viewBox="0 0 20 20" fill="none" xmlns="http://www.w3.org/2000/svg">
<circle cx="10" cy="10" r="10" fill="white" fill-opacity="0.4"/>
<path d="M6.51491 12.6692C6.2896 12.8945 6.2896 13.2598 6.51491 13.4851C6.74021 13.7104 7.1055 13.7104 7.3308 13.4851L6.51491 12.6692ZM14.0269 6.55001C14.0269 6.23138 13.7686 5.97309 13.45 5.97309H8.25768C7.93906 5.97309 7.68076 6.23138 7.68076 6.55001C7.68076 6.86863 7.93906 7.12693 8.25768 7.12693L12.8731 7.12693L12.8731 11.7423C12.8731 12.0609 13.1314 12.3192 13.45 12.3192C13.7686 12.3192 14.0269 12.0609 14.0269 11.7423V6.55001ZM7.3308 13.4851L13.8579 6.95795L13.042 6.14206L6.51491 12.6692L7.3308 13.4851Z" fill="#6A4BB4"/>
</svg>
