<svg width="29" height="28" viewBox="0 0 29 28" fill="none" xmlns="http://www.w3.org/2000/svg">
<path d="M7.33334 25.6668C6.69167 25.6668 6.14217 25.4382 5.68484 24.9808C5.2275 24.5235 4.99922 23.9744 5 23.3335V9.3335C5 8.69183 5.22867 8.14233 5.686 7.685C6.14334 7.22766 6.69245 6.99938 7.33334 7.00016H9.66667C9.66667 5.71683 10.1236 4.61822 11.0375 3.70433C11.9514 2.79044 13.05 2.3335 14.3333 2.3335C15.6167 2.3335 16.7153 2.79044 17.6292 3.70433C18.5431 4.61822 19 5.71683 19 7.00016H21.3333C21.975 7.00016 22.5245 7.22883 22.9818 7.68616C23.4392 8.1435 23.6674 8.69261 23.6667 9.3335V23.3335C23.6667 23.9752 23.438 24.5247 22.9807 24.982C22.5233 25.4393 21.9742 25.6676 21.3333 25.6668H7.33334ZM7.33334 23.3335H21.3333V9.3335H19V11.6668C19 11.9974 18.888 12.2747 18.664 12.4987C18.44 12.7227 18.1631 12.8343 17.8333 12.8335C17.5028 12.8335 17.2255 12.7215 17.0015 12.4975C16.7775 12.2735 16.6659 11.9966 16.6667 11.6668V9.3335H12V11.6668C12 11.9974 11.888 12.2747 11.664 12.4987C11.44 12.7227 11.1631 12.8343 10.8333 12.8335C10.5028 12.8335 10.2255 12.7215 10.0015 12.4975C9.7775 12.2735 9.66589 11.9966 9.66667 11.6668V9.3335H7.33334V23.3335ZM12 7.00016H16.6667C16.6667 6.3585 16.438 5.809 15.9807 5.35166C15.5233 4.89433 14.9742 4.66605 14.3333 4.66683C13.6917 4.66683 13.1422 4.8955 12.6848 5.35283C12.2275 5.81016 11.9992 6.35927 12 7.00016Z" fill="white"/>
</svg>
