<svg width="25" height="24" viewBox="0 0 25 24" fill="none" xmlns="http://www.w3.org/2000/svg">
<path d="M2.1665 8.5V20.1667C2.1665 20.7855 2.41234 21.379 2.84992 21.8166C3.28751 22.2542 3.881 22.5 4.49984 22.5H20.8332C21.452 22.5 22.0455 22.2542 22.4831 21.8166C22.9207 21.379 23.1665 20.7855 23.1665 20.1667V8.5" stroke="#FFBF35" stroke-width="1.75"/>
<path d="M22.5655 1.5H17.9082L18.4915 7.33333C18.4915 7.33333 19.6582 8.5 21.4082 8.5C22.3268 8.50121 23.2143 8.16681 23.9037 7.55967C23.9766 7.49156 24.0309 7.40601 24.0615 7.31109C24.0921 7.21617 24.098 7.11501 24.0787 7.01717L23.255 2.08333C23.2275 1.92034 23.1431 1.77236 23.0169 1.66559C22.8907 1.55883 22.7308 1.50017 22.5655 1.5Z" stroke="#FFBF35" stroke-width="1.75"/>
<path d="M17.9082 1.5L18.4915 7.33333C18.4915 7.33333 17.3249 8.5 15.5749 8.5C13.8249 8.5 12.6582 7.33333 12.6582 7.33333V1.5H17.9082Z" stroke="#FFBF35" stroke-width="1.75"/>
<path d="M12.6585 1.5V7.33333C12.6585 7.33333 11.4919 8.5 9.74186 8.5C7.99186 8.5 6.8252 7.33333 6.8252 7.33333L7.40853 1.5H12.6585Z" stroke="#FFBF35" stroke-width="1.75"/>
<path d="M7.40839 1.5H2.75222C2.58655 1.49994 2.42623 1.55864 2.29976 1.66566C2.1733 1.77269 2.08889 1.9211 2.06156 2.0845L1.23906 7.01833C1.21983 7.11618 1.22581 7.21731 1.25642 7.31221C1.28704 7.40711 1.34128 7.49266 1.41406 7.56083C1.79672 7.89917 2.65189 8.50117 3.90839 8.50117C5.65839 8.50117 6.82506 7.3345 6.82506 7.3345L7.40839 1.5Z" stroke="#FFBF35" stroke-width="1.75"/>
</svg>
